<svg xmlns="http://www.w3.org/2000/svg" viewBox="0 0 32 32" aria-hidden="true">
  <path fill="currentColor" d="M16 3.1a12.86 12.86 0 0 0-10.96 19.59L3.5 28.9l6.37-1.47A12.89 12.89 0 1 0 16 3.1Zm0 23.47a10.55 10.55 0 0 1-5.38-1.47l-.39-.23-3.78.87.91-3.67-.25-.4A10.59 10.59 0 1 1 16 26.57Zm5.81-7.92c-.32-.16-1.88-.93-2.17-1.04-.29-.1-.5-.16-.71.16-.2.31-.81 1.03-.99 1.24-.18.2-.36.23-.68.08-1.86-.93-3.08-1.66-4.3-3.76-.32-.55.32-.51.92-1.69.11-.23.05-.42-.03-.58-.08-.16-.71-1.71-.97-2.34-.26-.62-.52-.53-.71-.54h-.61a1.17 1.17 0 0 0-.84.39c-.29.31-1.1 1.08-1.1 2.64 0 1.55 1.13 3.05 1.29 3.27.16.21 2.22 3.39 5.38 4.76.75.32 1.34.52 1.79.67.75.24 1.43.21 1.97.13.6-.09 1.88-.77 2.14-1.52.26-.75.26-1.4.18-1.53-.07-.13-.28-.21-.6-.37Z"/>
</svg>

